<?xml version="1.0" standalone="no"?>
<!DOCTYPE svg PUBLIC "-//W3C//DTD SVG 20010904//EN"
 "http://www.w3.org/TR/2001/REC-SVG-20010904/DTD/svg10.dtd">
<svg version="1.0" xmlns="http://www.w3.org/2000/svg"
 width="350.000000pt" height="350.000000pt" viewBox="0 0 350.000000 350.000000"
 preserveAspectRatio="xMidYMid meet">
<metadata>
Created by potrace 1.14, written by Peter Selinger 2001-2017
</metadata>
<g transform="translate(0.000000,350.000000) scale(0.100000,-0.100000)"
fill="#000000" stroke="none">
<path d="M2194 2737 l-27 -24 46 -43 c51 -46 77 -109 77 -184 0 -60 -10 -71
-46 -53 -35 18 -63 48 -98 105 -14 23 -31 42 -37 42 -5 0 -3 -10 5 -22 9 -12
16 -30 16 -38 0 -9 15 -42 34 -73 l35 -57 -28 0 c-16 0 -75 -9 -132 -21 -110
-23 -175 -21 -215 6 -30 20 -40 19 -23 -2 33 -39 100 -57 239 -63 107 -5 143
-11 175 -27 37 -19 52 -20 216 -13 164 6 180 8 231 33 31 15 75 44 99 66 73
63 174 128 230 146 71 24 48 31 -32 10 -67 -18 -113 -39 -224 -104 -92 -54
-159 -73 -247 -69 l-71 3 -1 125 c-1 109 -4 132 -25 178 -32 71 -70 102 -126
102 -32 0 -52 -7 -71 -23z"/>
<path d="M530 2484 c0 -3 16 -33 36 -65 46 -77 76 -151 109 -274 40 -147 73
-184 186 -209 l64 -14 -92 -1 c-51 -1 -93 -3 -93 -6 0 -15 73 -184 89 -204 16
-21 25 -23 132 -26 118 -3 211 -21 283 -56 22 -10 43 -19 47 -19 4 0 12 30 19
68 6 37 22 100 36 140 13 40 24 79 24 86 0 8 -16 26 -36 41 -41 31 -38 49 4
19 15 -11 32 -23 39 -27 7 -5 25 16 47 55 20 35 50 82 68 106 l32 43 -39 34
c-22 19 -43 34 -47 35 -5 0 -8 -24 -9 -52 l-1 -53 -8 42 c-11 52 -31 91 -62
120 -25 24 -175 97 -221 108 l-28 7 15 -37 c21 -48 20 -69 -1 -30 -39 75 -77
98 -206 125 -133 27 -387 57 -387 44z"/>
<path d="M1858 2249 c-214 -50 -387 -246 -459 -519 -31 -116 -31 -299 0 -415
109 -410 495 -695 941 -695 212 0 450 78 609 201 112 86 224 227 281 355 150
332 58 767 -203 966 -125 96 -242 124 -449 108 -73 -5 -168 -10 -210 -10 -91
0 -156 -21 -249 -82 -82 -52 -184 -157 -232 -239 -84 -144 -117 -341 -83 -508
9 -46 15 -85 13 -88 -3 -2 -17 29 -32 69 -36 95 -46 265 -21 372 41 174 173
342 334 424 46 23 90 42 98 42 8 0 14 4 14 9 0 19 -280 27 -352 10z"/>
<path d="M721 1644 c-40 -7 -85 -17 -99 -22 l-27 -9 43 -28 c53 -35 49 -42 -9
-15 -67 30 -108 25 -228 -25 -109 -46 -322 -164 -328 -181 -2 -6 22 -21 52
-33 70 -29 181 -101 265 -173 36 -30 75 -60 87 -67 27 -14 113 -14 149 -1 44
17 38 5 -16 -30 -27 -17 -47 -36 -44 -41 10 -16 124 -90 172 -111 90 -40 210
-23 303 43 59 42 38 11 -38 -57 -43 -37 -80 -69 -82 -71 -9 -6 7 -12 94 -38
130 -38 206 -37 290 4 35 18 74 45 86 62 37 52 32 23 -5 -33 -20 -29 -36 -56
-36 -60 0 -19 232 41 246 63 3 6 -14 32 -38 57 -98 103 -163 211 -213 356
l-31 91 -90 24 c-64 17 -129 25 -234 29 -111 4 -134 8 -100 13 95 16 218 10
375 -16 l40 -7 -4 89 c-2 48 -7 96 -12 105 -21 39 -197 96 -302 98 l-28 0 20
-29 c28 -38 27 -50 -2 -23 -55 52 -121 61 -256 36z"/>
</g>
</svg>
